<?xml version="1.0" encoding="UTF-8"?>
<svg viewBox="0 0 28.911673 32.653774" xmlns="http://www.w3.org/2000/svg">
 <g transform="translate(-20.653 -15.447)">
  <path d="m38.638 18.139c-1.798 1.5509-3.1446 4.3692-4.5312 5.8438-2.6315-2.177-3.8188-6.2358-6.6562-7.375-3.4406 0.91828-8.9042 4.1354-4.875 7.625 2.0576 3.0423 6.1945 5.7464 7.1562 8.9062-1.4673 3.7894-4.291 6.615-7.0312 9.375 1.3399 4.6754 7.7548 0.52478 10.344-1.75 2.0648-4.6338 3.5683 0.89824 5.4994 2.891 1.5405 6.2227 9.8042 4.4034 10.522-0.73944-2.8396-4.5489-6.7818-8.9244-9.521-13.402 1.0851-4.6542 5.6334-7.7704 6.6875-12.281-1.7893-3.1223-5.2813 0.35232-7.5938 0.90625z" fill="#f00"/>
  <path d="m38.638 18.139c-1.798 1.5509-3.1446 4.3692-4.5312 5.8438-2.6315-2.177-3.8188-6.2358-6.6562-7.375-3.4406 0.91828-8.9042 4.1354-4.875 7.625 2.0576 3.0423 6.1945 5.7464 7.1562 8.9062-1.4673 3.7894-4.291 6.615-7.0312 9.375 1.3399 4.6754 7.7548 0.52478 10.344-1.75 2.0648-4.6338 3.5683 0.89824 5.4994 2.891 1.5405 6.2227 9.8042 4.4034 10.522-0.73944-2.8396-4.5489-6.7818-8.9244-9.521-13.402 1.0851-4.6542 5.6334-7.7704 6.6875-12.281-1.7893-3.1223-5.2813 0.35232-7.5938 0.90625z" fill="none" stroke="#a70000"/>
 </g>
</svg>
